<svg width="20px" height="20px" viewBox="0 0 24 24" xmlns="http://www.w3.org/2000/svg" id="scan-alt" class="icon glyph" fill="currentColor">
  <g id="SVGRepo_bgCarrier" stroke-width="0"></g>
  <g id="SVGRepo_tracerCarrier" stroke-linecap="round" stroke-linejoin="round"></g>
  <g id="SVGRepo_iconCarrier">
    <path d="M8,22H4a2,2,0,0,1-2-2V16a1,1,0,0,1,2,0v4H8a1,1,0,0,1,0,2Z"></path>
    <path d="M20,22H16a1,1,0,0,1,0-2h4V16a1,1,0,0,1,2,0v4A2,2,0,0,1,20,22Z"></path>
    <path d="M8,22H4a2,2,0,0,1-2-2V16a1,1,0,0,1,2,0v4H8a1,1,0,0,1,0,2Z"></path>
    <path d="M3,9A1,1,0,0,1,2,8V4A2,2,0,0,1,4,2H8A1,1,0,0,1,8,4H4V8A1,1,0,0,1,3,9Z"></path>
    <path d="M21,9a1,1,0,0,1-1-1V4H16a1,1,0,0,1,0-2h4a2,2,0,0,1,2,2V8A1,1,0,0,1,21,9Z"></path>
    <path d="M12,17a1,1,0,0,1-1-1V8a1,1,0,0,1,2,0v8A1,1,0,0,1,12,17Z"></path>
    <path d="M8,15a1,1,0,0,1-1-1V10a1,1,0,0,1,2,0v4A1,1,0,0,1,8,15Z"></path>
    <path d="M16,15a1,1,0,0,1-1-1V10a1,1,0,0,1,2,0v4A1,1,0,0,1,16,15Z"></path>
  </g>
</svg>
